<?xml version="1.0" encoding="utf-8"?>
<!-- Generator: Adobe Illustrator 17.1.0, SVG Export Plug-In . SVG Version: 6.00 Build 0)  -->
<!DOCTYPE svg PUBLIC "-//W3C//DTD SVG 1.1//EN" "http://www.w3.org/Graphics/SVG/1.1/DTD/svg11.dtd">
<svg version="1.1" xmlns="http://www.w3.org/2000/svg" xmlns:xlink="http://www.w3.org/1999/xlink" x="0px" y="0px" width="109px"
	 height="109px" viewBox="0 0 109 109" style="enable-background:new 0 0 109 109;" xml:space="preserve">
<style type="text/css">
	.st0{fill:#FFFFFF;}
	.st1{fill-rule:evenodd;clip-rule:evenodd;fill:#FFFFFF;}
</style>
<g id="video">
</g>
<g id="graphic">
	<path class="st1" d="M85.6,82.9c0,1.1-0.3,2.1-1.1,2.9l-13.4,14c-1,1-2.3,1.4-3.6,1.4H31c-3.4,0-6.2-2.8-6.2-6.2
		c0-20.3,0-40.7,0-61c0-3.4,2.8-6.2,6.2-6.2h48.4c3.4,0,6.2,2.8,6.2,6.2v6.9l-5.7,5.7V34.1c0-0.2-0.2-0.4-0.4-0.4H31
		c-0.2,0-0.4,0.2-0.4,0.4c0,20.3,0,40.7,0,61c0,0.2,0.2,0.4,0.4,0.4H66c0.8,0,1.1-0.3,1.1-1.1v-8c0-2.7,1.6-4.3,4.3-4.3h7.4
		c0.8,0,1.1-0.3,1.1-1.1v-8.4l5.7-5.7V82.9L85.6,82.9z M38.2,39.4v3.7h34.2v-3.7H38.2L38.2,39.4z M38.2,46.3V50h34.2v-3.7H38.2
		L38.2,46.3z M38.2,53.2v3.7h16.5v-3.7H38.2L38.2,53.2z M63,71.8c-0.4,0.9-2.3,5-2.3,5.7c-0.1,1.1,0.3,1.5,1.4,1.4
		c0.6-0.1,4.8-2,5.7-2.3c-0.7-0.9-1.4-1.7-2.2-2.5C64.7,73.2,63.8,72.5,63,71.8L63,71.8z M91.1,39.4L64.7,65.7c1.8,1.1,3.5,2.5,5,4
		c1.6,1.6,2.9,3.2,4,5l26.4-26.4c-1.1-1.8-2.5-3.5-4-5C94.5,41.8,92.9,40.5,91.1,39.4z"/>
</g>
<g id="web">
</g>
<g id="Layer_4">
</g>
</svg>
