<?xml version="1.0" encoding="utf-8"?>
<!-- Generator: Adobe Illustrator 17.1.0, SVG Export Plug-In . SVG Version: 6.00 Build 0)  -->
<!DOCTYPE svg PUBLIC "-//W3C//DTD SVG 1.1//EN" "http://www.w3.org/Graphics/SVG/1.1/DTD/svg11.dtd">
<svg version="1.1" xmlns="http://www.w3.org/2000/svg" xmlns:xlink="http://www.w3.org/1999/xlink" x="0px" y="0px" width="80px"
	 height="80px" viewBox="0 0 80 80" enable-background="new 0 0 80 80" xml:space="preserve">
<g id="zoom">
	<path fill="#FFFFFF" d="M62.2,57.8l-17.8,0c-9.8,0-17.8-8-17.8-17.8c0-1.5,0.3-3,0.6-4.4h8.3c0.4,0,0.8,0.1,1.1,0.2
		C36,37,35.6,38.5,35.6,40c0,4.9,4,8.9,8.9,8.9h17.8c4.9,0,8.9-4,8.9-8.9c0-4.9-4-8.9-8.9-8.9l-6.3,0c-1.6-3.6-4.1-6.6-7.1-8.9h13.5
		C72,22.2,80,30.2,80,40C80,49.8,72,57.8,62.2,57.8z M24.1,48.9l-6.3,0c-4.9,0-8.9-4-8.9-8.9c0-4.9,4-8.9,8.9-8.9l17.8,0
		c4.9,0,8.9,4,8.9,8.9c0,1.5-0.4,3-1.1,4.2c0.4,0.1,0.7,0.2,1.1,0.2l8.3,0c0.4-1.4,0.6-2.9,0.6-4.4c0-9.8-8-17.8-17.8-17.8H17.8
		C8,22.2,0,30.2,0,40c0,9.8,8,17.8,17.8,17.8h13.5C28.2,55.5,25.7,52.4,24.1,48.9z"/>
</g>
<g id="btn_x5F_line">
</g>
<g id="sidebar_x5F_btn">
</g>
<g id="top_x5F_socials">
</g>
<g id="testimonials_x5F_txt_x5F_bg">
</g>
<g id="jcarousel_x5F_next">
</g>
<g id="jcarousel_x5F_prev">
</g>
<g id="top_x5F_btn">
</g>
</svg>
