<?xml version="1.0" encoding="utf-8"?>
<!-- Generator: Adobe Illustrator 17.1.0, SVG Export Plug-In . SVG Version: 6.00 Build 0)  -->
<!DOCTYPE svg PUBLIC "-//W3C//DTD SVG 1.1//EN" "http://www.w3.org/Graphics/SVG/1.1/DTD/svg11.dtd">
<svg version="1.1" xmlns="http://www.w3.org/2000/svg" xmlns:xlink="http://www.w3.org/1999/xlink" x="0px" y="0px" width="637.5px"
	 height="390.4px" viewBox="-196.6 -120.4 637.5 390.4" style="enable-background:new -196.6 -120.4 637.5 390.4;"
	 xml:space="preserve">
<style type="text/css">
	.st0{fill:#FFFFFF;}
	.st1{enable-background:new    ;}
</style>
<g id="Layer_2_1_">
</g>
<g id="Layer_1">
	<g id="Layer_5">
	</g>
	<g id="Layer_1_copy">
	</g>
	<g id="Layer_3">
	</g>
	<g>
		<g>
			<path class="st0" d="M178-48.4l9.7-53.2c-18-11.5-39.7-18.3-62.6-18.3c-37.6,0-71,17.7-92.1,45.4L178-48.4z"/>
			<path class="st0" d="M236-37.9c-6-19.1-16.7-36.3-30.8-49.9L197.3-45L236-37.9z"/>
			<path class="st0" d="M194.2-26.7l-2.9,16.2l0,0l-17.5,97.1l-7-1.3l-49.3-71l-17.2,95.5c8.1,1.8,16.2,2.6,24.8,2.6
				c64.2,0,116.2-51.9,116.2-116.2c0-5-0.3-9.9-1-14.6L194.2-26.7z"/>
			<path class="st0" d="M86.9,70.9L86.9,70.9l17.5-97.1l6.5,1l49.9,72l9.1-50.4l0.8-5l3.9-21.7L79.9-47.3L65.3,33.1l-19.3-3.4
				l14.6-80.4l-38.4-7C13.6-41.6,8.9-23.3,8.9-3.7c0,48.5,29.8,90.3,72.3,107.5L86.9,70.9z"/>
		</g>
		<g class="st1">
			<path class="st0" d="M-82.4,268.8v-17.2h1.1l7.5,8.5l7.5-8.5h1.1v17.2h-3.4l0-10l-5.2,5.7l-5.2-5.7v10H-82.4z"/>
		</g>
		<g class="st1">
			<path class="st0" d="M-51.6,251.6v10c0,1.3,0.4,2.3,1.1,2.9c0.8,0.6,1.7,0.9,2.9,0.9c1.1,0,2.1-0.3,2.9-0.9
				c0.8-0.6,1.1-1.6,1.1-2.9v-10h3.4v10.9c0,1.8-0.7,3.2-2.1,4.5c-1.4,1.2-3.2,1.8-5.3,1.8s-3.9-0.6-5.3-1.8
				c-1.4-1.2-2.1-2.7-2.1-4.5v-10.9H-51.6z"/>
		</g>
		<g class="st1">
			<path class="st0" d="M-25.7,251.6v14h9.2v3.2h-12.6v-17.2H-25.7z"/>
		</g>
		<g class="st1">
			<path class="st0" d="M5,251.6v3.2h-5.7v14h-3.4v-14H-10v-3.2H5z"/>
		</g>
		<g class="st1">
			<path class="st0" d="M14.4,251.6h3.4v17.2h-3.4V251.6z"/>
		</g>
		<g class="st1">
			<path class="st0" d="M28.8,268.8v-17.2h1.1l7.5,8.5l7.5-8.5H46v17.2h-3.4l0-10l-5.2,5.7l-5.2-5.7v10H28.8z"/>
		</g>
		<g class="st1">
			<path class="st0" d="M56.6,268.8v-17.2l12.6,0v3.2h-9.2v3.7H67v3.2h-6.9v3.9h9.2v3.2H56.6z"/>
		</g>
		<g class="st1">
			<path class="st0" d="M79.9,268.8v-17.2h6.6c5.4,0,8,2.9,8,8.6c0,5.7-2.7,8.6-8,8.6H79.9z M86.6,265.3c3.1,0,4.6-1.7,4.6-5.2
				c0-3.4-1.5-5.2-4.6-5.2h-3.2v10.3H86.6z"/>
		</g>
		<g class="st1">
			<path class="st0" d="M104.7,251.6h3.4v17.2h-3.4V251.6z"/>
		</g>
		<g class="st1">
			<path class="st0" d="M117.6,268.8l6.9-17.2h3.4l6.9,17.2l-3.7,0l-1-2.6h-7.8l-1,2.6H117.6z M126.3,256.2l-2.6,6.5h5.2
				L126.3,256.2z"/>
		</g>
		<g class="st1">
			<path class="st0" d="M159.5,268.8v-17.2h6.6c5.4,0,8,2.9,8,8.6c0,5.7-2.7,8.6-8,8.6H159.5z M166.2,265.3c3.1,0,4.6-1.7,4.6-5.2
				c0-3.4-1.5-5.2-4.6-5.2H163v10.3H166.2z"/>
		</g>
		<g class="st1">
			<path class="st0" d="M184.8,268.8v-17.2l12.6,0v3.2h-9.2v3.7h6.9v3.2h-6.9v3.9h9.2v3.2H184.8z"/>
		</g>
		<g class="st1">
			<path class="st0" d="M217.1,252.1c0.9,0.4,1.7,1,2.5,1.7l-2.3,2.3c-0.8-0.9-1.8-1.4-3.2-1.4c-1.4,0-2.3,0.3-2.6,1
				c-0.4,0.7-0.4,1.2,0,1.7c0.4,0.5,1.3,0.8,2.6,1c1.5,0.2,2.8,0.6,4,1.4c1.2,0.8,1.8,2.1,1.8,3.8c0,1.4-0.6,2.6-1.9,3.6
				c-1.3,1-2.7,1.5-4.4,1.5c-1.6,0-2.9-0.2-4-0.7c-1.1-0.5-2-1.1-2.8-1.8l2.3-2.3c0.8,0.9,2.1,1.5,3.9,1.6c1.5,0,2.5-0.3,2.9-1
				c0.4-0.6,0.4-1.3,0-2c-0.4-0.6-1.3-1.1-2.9-1.2c-1.4-0.2-2.6-0.6-3.8-1.3c-1.1-0.7-1.7-1.9-1.7-3.6c0-1.5,0.7-2.7,2-3.7
				c1.3-0.9,2.6-1.4,4-1.4C215,251.6,216.3,251.8,217.1,252.1z"/>
		</g>
		<g class="st1">
			<path class="st0" d="M230,251.6h3.4v17.2H230V251.6z"/>
		</g>
		<g class="st1">
			<path class="st0" d="M245.9,266.3c-1.6-1.6-2.5-3.7-2.5-6.2c0-2.4,0.8-4.5,2.5-6.1c1.6-1.6,3.7-2.5,6.1-2.5
				c2.5,0,4.6,0.8,6.3,2.3l-2.3,2.5c-1.2-0.9-2.5-1.4-4-1.4c-1.5,0-2.8,0.5-3.7,1.4c-0.9,1-1.4,2.2-1.4,3.7c0,1.6,0.5,2.9,1.4,3.8
				c0.9,0.9,2.2,1.4,3.7,1.4c1.2,0,2.2-0.2,2.9-0.7v-2.9l-2.3,0v-3.2h5.7v8c-1.8,1.5-3.9,2.3-6.3,2.3
				C249.6,268.8,247.5,267.9,245.9,266.3z"/>
		</g>
		<g class="st1">
			<path class="st0" d="M269.2,268.8v-17.2h1.1l10.8,10.8v-10.8h3.4v17.2h-1.3l-10.7-10.7v10.7H269.2z"/>
		</g>
		<g class="st1">
			<path class="st0" d="M295.5,268.8v-17.2l12.6,0v3.2h-9.2v3.7h6.9v3.2h-6.9v3.9h9.2v3.2H295.5z"/>
		</g>
		<g class="st1">
			<path class="st0" d="M328.8,261.3l4.3,7.5h-3.9l-4.1-7.1h-3.1v7.1h-3.4v-17.2h7.5c4,0,6,1.7,6,5C332,259,331,260.6,328.8,261.3z
				 M321.9,258.4h4.8c1.4,0,2.1-0.7,2.1-1.9c0-1.1-0.7-1.7-2.1-1.8h-4.9V258.4z"/>
		</g>
		<g class="st1">
			<path class="st0" d="M-146.8,172.4v10.7h-19.1v46.6h-11.5v-46.6h-19.1v-10.7H-146.8z"/>
		</g>
		<g class="st1">
			<path class="st0" d="M-107.7,204.7l14.3,25h-13.2l-13.7-23.7h-10.5v23.7h-11.5v-57.4h25c13.4,0,20.1,5.5,20.1,16.5
				C-97.1,197.2-100.6,202.5-107.7,204.7z M-130.7,195.3h16.1c4.6-0.1,7-2.2,7.1-6.3c-0.1-3.8-2.5-5.7-7-5.9h-16.2V195.3z"/>
		</g>
		<g class="st1">
			<path class="st0" d="M-89.4,229.7v-57.3l42.1,0v10.7h-30.7v12.2h23V206h-23v13h30.6v10.7H-89.4z"/>
		</g>
		<g class="st1">
			<path class="st0" d="M-42.5,229.7v-57.4h3.8l35.9,35.9v-35.9H8.7v57.4H4.5L-31,194.2v35.6H-42.5z"/>
		</g>
		<g class="st1">
			<path class="st0" d="M63.3,172.4v10.7H44.2v46.6H32.7v-46.6H13.6v-10.7H63.3z"/>
		</g>
		<g class="st1">
			<path class="st0" d="M94.8,229.7v-57.4h3.8l35.9,35.9v-35.9H146v57.4h-4.2l-35.6-35.6v35.6H94.8z"/>
		</g>
		<g class="st1">
			<path class="st0" d="M150.8,229.7v-57.3l42.1,0v10.7h-30.7v12.2h23V206h-23v13h30.6v10.7H150.8z"/>
		</g>
		<g class="st1">
			<path class="st0" d="M235.6,187.7l-11.5,42.1h-11.5l-15.3-57.4h12.2l10,39l10.3-39h11.9l9.9,39l9.9-39h12.2l-15.3,57.4h-11.5
				L235.6,187.7z"/>
		</g>
		<g class="st1">
			<path class="st0" d="M328.5,172.4v10.7h-19.1v46.6h-11.5v-46.6h-19.1v-10.7H328.5z"/>
		</g>
		<g class="st1">
			<path class="st0" d="M337.4,221.5c-5.5-5.5-8.2-12.3-8.2-20.4c0-8.2,2.7-15,8.2-20.5c5.5-5.5,12.3-8.2,20.5-8.2s15,2.7,20.5,8.2
				c5.5,5.5,8.2,12.3,8.2,20.5s-2.7,15-8.2,20.5s-12.3,8.2-20.5,8.2S342.9,227,337.4,221.5z M357.9,219c5.1,0,9.2-1.7,12.4-5.2
				c3.2-3.4,4.8-7.7,4.8-12.8s-1.6-9.4-4.8-12.8c-3.2-3.4-7.3-5.2-12.5-5.2c-5.1,0-9.2,1.7-12.4,5.2s-4.8,7.7-4.8,12.8
				s1.6,9.4,4.8,12.8C348.6,217.3,352.7,219,357.9,219z"/>
		</g>
		<g class="st1">
			<path class="st0" d="M389.7,229.7v-57.4h3.8l35.9,35.9v-35.9H441v57.4h-4.2l-35.6-35.6v35.6H389.7z"/>
		</g>
		<g id="Layer_1_1_">
		</g>
	</g>
</g>
</svg>
