<?xml version="1.0" encoding="utf-8"?>
<!-- Generator: Adobe Illustrator 17.1.0, SVG Export Plug-In . SVG Version: 6.00 Build 0)  -->
<!DOCTYPE svg PUBLIC "-//W3C//DTD SVG 1.1//EN" "http://www.w3.org/Graphics/SVG/1.1/DTD/svg11.dtd">
<svg version="1.1" id="Layer_1" xmlns="http://www.w3.org/2000/svg" xmlns:xlink="http://www.w3.org/1999/xlink" x="0px" y="0px"
	 width="54px" height="68px" viewBox="0 0 54 68" style="enable-background:new 0 0 54 68;" xml:space="preserve">
<style type="text/css">
	.st0{fill:#FFFFFF;}
	.st1{fill:#401716;}
</style>
<g id="sidebar_x5F_btn">
	<g>
		<g>
			<path class="st0" d="M54,2.1c0,1.2-0.8,2.1-1.9,2.1H1.9C0.8,4.2,0,3.2,0,2.1l0,0C0,0.9,0.8,0,1.9,0h50.2C53.2,0,54,0.9,54,2.1
				L54,2.1z"/>
			<path class="st0" d="M54,11.9c0,1.2-0.8,2.1-1.9,2.1H1.9c-1,0-1.9-0.9-1.9-2.1l0,0c0-1.2,0.8-2.1,1.9-2.1h50.2
				C53.2,9.9,54,10.8,54,11.9L54,11.9z"/>
			<path class="st0" d="M54,22.1c0,1.2-0.8,2.1-1.9,2.1H1.9c-1,0-1.9-0.9-1.9-2.1l0,0C0,20.9,0.8,20,1.9,20h50.2
				C53.2,20,54,20.9,54,22.1L54,22.1z"/>
			<path class="st0" d="M54,31.9c0,1.2-0.8,2.1-1.9,2.1H1.9c-1,0-1.9-0.9-1.9-2.1l0,0c0-1.2,0.8-2.1,1.9-2.1h50.2
				C53.2,29.8,54,30.8,54,31.9L54,31.9z"/>
		</g>
		<g>
			<path class="st1" d="M54,36.1c0,1.2-0.8,2.1-1.9,2.1H1.9c-1,0-1.9-0.9-1.9-2.1l0,0C0,34.9,0.8,34,1.9,34h50.2
				C53.2,34,54,34.9,54,36.1L54,36.1z"/>
			<path class="st1" d="M54,45.9c0,1.2-0.8,2.1-1.9,2.1H1.9c-1,0-1.9-0.9-1.9-2.1l0,0c0-1.2,0.8-2.1,1.9-2.1h50.2
				C53.2,43.9,54,44.8,54,45.9L54,45.9z"/>
			<path class="st1" d="M54,56.1c0,1.2-0.8,2.1-1.9,2.1H1.9c-1,0-1.9-0.9-1.9-2.1l0,0C0,54.9,0.8,54,1.9,54h50.2
				C53.2,54,54,54.9,54,56.1L54,56.1z"/>
			<path class="st1" d="M54,65.9c0,1.2-0.8,2.1-1.9,2.1H1.9c-1,0-1.9-0.9-1.9-2.1l0,0c0-1.2,0.8-2.1,1.9-2.1h50.2
				C53.2,63.8,54,64.8,54,65.9L54,65.9z"/>
		</g>
	</g>
</g>
</svg>
