<?xml version="1.0" encoding="utf-8"?>
<!-- Generator: Adobe Illustrator 17.1.0, SVG Export Plug-In . SVG Version: 6.00 Build 0)  -->
<!DOCTYPE svg PUBLIC "-//W3C//DTD SVG 1.1//EN" "http://www.w3.org/Graphics/SVG/1.1/DTD/svg11.dtd">
<svg version="1.1" id="Layer_1" xmlns="http://www.w3.org/2000/svg" xmlns:xlink="http://www.w3.org/1999/xlink" x="0px" y="0px"
	 width="23px" height="16px" viewBox="828.5 499.5 23 16" style="enable-background:new 828.5 499.5 23 16;" xml:space="preserve">
<style type="text/css">
	.st0{fill:#FFFFFF;}
</style>
<g id="zoom">
</g>
<g id="btn_x5F_line">
</g>
<g id="sidebar_x5F_btn">
</g>
<g id="top_x5F_socials">
</g>
<g id="testimonials_x5F_txt_x5F_bg">
	<g>
		<path class="st0" d="M829.3,508.8c0-5.1,4.1-8.2,8.6-9.3c0.9,0.1,1.1,1.3,0.5,1.7c-1.9,0.7-4.6,2.5-4.6,5.1c0,2.3,1.7,3.1,3,3.4
			c0.9,0.3,1.6,1.1,1.6,2.4c0,1.9-1.7,3.4-3.8,3.4C832.4,515.5,829.3,513.6,829.3,508.8z M841.2,508.8c0-5.1,4.1-8.2,8.6-9.3
			c0.9,0.1,1.1,1.3,0.5,1.7c-2,0.7-4.6,2.5-4.6,5.1c0,2.3,1.7,3.1,3,3.4c0.9,0.3,1.6,1.1,1.6,2.4c0,1.9-1.7,3.4-3.8,3.4
			C844.4,515.5,841.2,513.6,841.2,508.8z"/>
	</g>
</g>
<g id="jcarousel_x5F_next">
</g>
<g id="jcarousel_x5F_prev">
</g>
<g id="top_x5F_btn">
</g>
</svg>
