<?xml version="1.0" encoding="utf-8"?>
<!-- Generator: Adobe Illustrator 17.1.0, SVG Export Plug-In . SVG Version: 6.00 Build 0)  -->
<!DOCTYPE svg PUBLIC "-//W3C//DTD SVG 1.1//EN" "http://www.w3.org/Graphics/SVG/1.1/DTD/svg11.dtd">
<svg version="1.1" id="Layer_1" xmlns="http://www.w3.org/2000/svg" xmlns:xlink="http://www.w3.org/1999/xlink" x="0px" y="0px"
	 width="110px" height="60px" viewBox="1176.5 477.5 110 60" style="enable-background:new 1176.5 477.5 110 60;"
	 xml:space="preserve">
<style type="text/css">
	.st0{fill:#401716;}
	.st1{fill:#FFFFFF;}
</style>
<path class="st0" d="M1191.7,508.6c-7.7,0-14,6.3-14,14c0,7.7,6.3,14,14,14s14-6.3,14-14C1205.6,514.9,1199.4,508.6,1191.7,508.6z
	 M1201,517l-2.2,0c-1.7,0-2,0.8-2,2v2.6h4l-0.5,4.1h-3.5v9.9c-2.5,0.9-4.2,1-4.2,1l0-10.9h-3.5v-4.1h3.5v-3c0-3.5,2.1-5.4,5.2-5.4
	c1.5,0,2.8,0.1,3.1,0.2V517z"/>
<path class="st1" d="M1191.7,478.4c-7.7,0-14,6.3-14,14c0,7.7,6.3,14,14,14s14-6.3,14-14C1205.6,484.6,1199.4,478.4,1191.7,478.4z
	 M1201,486.8l-2.2,0c-1.7,0-2,0.8-2,2v2.6h4l-0.5,4.1h-3.5v9.9c-2.5,0.9-4.2,1-4.2,1l0-10.9h-3.5v-4.1h3.5v-3c0-3.5,2.1-5.4,5.2-5.4
	c1.5,0,2.8,0.1,3.1,0.2V486.8z"/>
<path class="st0" d="M1231.5,508.6c-7.7,0-14,6.3-14,14c0,7.7,6.3,14,14,14c7.7,0,14-6.3,14-14
	C1245.5,514.9,1239.2,508.6,1231.5,508.6z M1239.8,518.4c0,0.2,0,0.4,0,0.6c0,5.7-4.3,12.2-12.3,12.2c-2.4,0-4.7-0.7-6.6-1.9
	c0.3,0,0.7,0.1,1,0.1c2,0,3.9-0.7,5.3-1.8c-1.9,0-3.5-1.3-4-3c0.3,0.1,0.5,0.1,0.8,0.1c0.4,0,0.8-0.1,1.1-0.1
	c-2-0.4-3.5-2.1-3.5-4.2c0,0,0,0,0-0.1c0.6,0.3,1.2,0.5,1.9,0.5c-1.2-0.8-1.9-2.1-1.9-3.6c0-0.8,0.2-1.5,0.6-2.2
	c2.1,2.6,5.3,4.3,8.9,4.5c-0.1-0.3-0.1-0.6-0.1-1c0-2.4,1.9-4.3,4.3-4.3c1.2,0,2.4,0.5,3.1,1.4c1-0.2,1.9-0.6,2.7-1
	c-0.3,1-1,1.8-1.9,2.4c0.9-0.1,1.7-0.3,2.5-0.7C1241.4,517,1240.7,517.8,1239.8,518.4z"/>
<path class="st1" d="M1231.5,478.4c-7.7,0-14,6.3-14,14s6.3,14,14,14c7.7,0,14-6.3,14-14S1239.2,478.4,1231.5,478.4z M1239.8,488.1
	c0,0.2,0,0.4,0,0.6c0,5.7-4.3,12.2-12.3,12.2c-2.4,0-4.7-0.7-6.6-1.9c0.3,0,0.7,0.1,1,0.1c2,0,3.9-0.7,5.3-1.8c-1.9,0-3.5-1.3-4-3
	c0.3,0.1,0.5,0.1,0.8,0.1c0.4,0,0.8-0.1,1.1-0.1c-2-0.4-3.5-2.1-3.5-4.2c0,0,0,0,0-0.1c0.6,0.3,1.2,0.5,1.9,0.5
	c-1.2-0.8-1.9-2.1-1.9-3.6c0-0.8,0.2-1.5,0.6-2.2c2.1,2.6,5.3,4.3,8.9,4.5c-0.1-0.3-0.1-0.6-0.1-1c0-2.4,1.9-4.3,4.3-4.3
	c1.2,0,2.4,0.5,3.1,1.4c1-0.2,1.9-0.6,2.7-1c-0.3,1-1,1.8-1.9,2.4c0.9-0.1,1.7-0.3,2.5-0.7C1241.4,486.7,1240.7,487.5,1239.8,488.1z
	"/>
<path class="st0" d="M1270.3,508.6c-7.7,0-14,6.3-14,14c0,7.7,6.3,14,14,14s14-6.3,14-14C1284.3,514.9,1278.1,508.6,1270.3,508.6z
	 M1265.1,531.9h-3.9v-12.4h3.9V531.9z M1263.2,517.8c-1.2,0-2.2-1-2.2-2.2c0-1.2,1-2.2,2.2-2.2c1.2,0,2.2,1,2.2,2.2
	C1265.4,516.8,1264.4,517.8,1263.2,517.8z M1279.6,531.9h-3.9v-6c0-1.4,0-3.3-2-3.3c-2,0-2.3,1.6-2.3,3.2v6.1h-3.9v-12.4h3.7v1.7
	h0.1c0.5-1,1.8-2,3.6-2c3.9,0,4.6,2.6,4.6,5.9V531.9z"/>
<path class="st1" d="M1270.3,478.4c-7.7,0-14,6.3-14,14s6.3,14,14,14c7.7,0,14-6.3,14-14S1278.1,478.4,1270.3,478.4z M1265.1,501.7
	h-3.9v-12.4h3.9V501.7z M1263.2,487.6c-1.2,0-2.2-1-2.2-2.2c0-1.2,1-2.2,2.2-2.2c1.2,0,2.2,1,2.2,2.2
	C1265.4,486.6,1264.4,487.6,1263.2,487.6z M1279.6,501.7h-3.9v-6c0-1.4,0-3.3-2-3.3c-2,0-2.3,1.6-2.3,3.2v6.1h-3.9v-12.4h3.7v1.7
	h0.1c0.5-1,1.8-2,3.7-2c3.9,0,4.6,2.6,4.6,5.9V501.7z"/>
</svg>
