<?xml version="1.0" encoding="utf-8"?>
<!-- Generator: Adobe Illustrator 17.1.0, SVG Export Plug-In . SVG Version: 6.00 Build 0)  -->
<!DOCTYPE svg PUBLIC "-//W3C//DTD SVG 1.1//EN" "http://www.w3.org/Graphics/SVG/1.1/DTD/svg11.dtd">
<svg version="1.1" xmlns="http://www.w3.org/2000/svg" xmlns:xlink="http://www.w3.org/1999/xlink" x="0px" y="0px" width="109px"
	 height="109px" viewBox="0 0 109 109" style="enable-background:new 0 0 109 109;" xml:space="preserve">
<style type="text/css">
	.st0{fill:#FFFFFF;}
	.st1{fill-rule:evenodd;clip-rule:evenodd;fill:#FFFFFF;}
</style>
<g id="video">
	<polygon class="st0" points="55.6,28.3 43.2,22 32.5,25.4 44.9,31.8 	"/>
	<polygon class="st0" points="76.3,21.6 63.9,15.3 53.3,18.7 65.7,25 	"/>
	<polygon class="st0" points="90,17.1 87.8,10.1 84.7,8.5 74,12 86.4,18.3 	"/>
	<polygon class="st0" points="22.5,38.6 18.4,42.7 18.4,48.4 23.9,48.4 33.7,38.6 	"/>
	<polygon class="st0" points="44.4,38.6 34.5,48.4 45.7,48.4 55.6,38.6 	"/>
	<polygon class="st0" points="66.2,38.6 56.3,48.4 67.5,48.4 77.4,38.6 	"/>
	<polygon class="st0" points="91.8,38.6 88,38.6 78.2,48.4 89.4,48.4 91.8,46 	"/>
	<path class="st0" d="M22.4,28.7l-5.2,1.7l1.8,5.4l5.2,2.6L34.8,35L22.4,28.7z M23.4,36.1c-1.3,0-2.3-1-2.3-2.3c0-1.3,1-2.3,2.3-2.3
		c1.3,0,2.3,1,2.3,2.3C25.7,35.1,24.7,36.1,23.4,36.1z"/>
	<path class="st0" d="M84.4,48.4H25.8c-2.3,0-4.1,1.4-4.1,3.1v46.7c0,1.7,1.9,3.1,4.1,3.1h58.7c2.3,0,4.1-1.4,4.1-3.1V51.5
		C88.6,49.8,86.7,48.4,84.4,48.4z M79.6,84.6H65.7v5.5h-2.6v-5.5h-16v5.5h-2.6v-5.5H30.6V82h49V84.6z M79.6,73.9h-49v-3h49V73.9z
		 M79.6,62.6h-49v-4.1h49V62.6z"/>
	<rect x="21.6" y="48.4" class="st0" width="67" height="8.3"/>
</g>
<g id="graphic">
</g>
<g id="web">
</g>
<g id="Layer_4">
</g>
</svg>
