<?xml version="1.0" encoding="utf-8"?>
<!-- Generator: Adobe Illustrator 17.1.0, SVG Export Plug-In . SVG Version: 6.00 Build 0)  -->
<!DOCTYPE svg PUBLIC "-//W3C//DTD SVG 1.1//EN" "http://www.w3.org/Graphics/SVG/1.1/DTD/svg11.dtd">
<svg version="1.1" xmlns="http://www.w3.org/2000/svg" xmlns:xlink="http://www.w3.org/1999/xlink" x="0px" y="0px" width="109px"
	 height="109px" viewBox="0 0 109 109" style="enable-background:new 0 0 109 109;" xml:space="preserve">
<style type="text/css">
	.st0{fill:#FFFFFF;}
	.st1{fill-rule:evenodd;clip-rule:evenodd;fill:#FFFFFF;}
</style>
<g id="video">
</g>
<g id="graphic">
</g>
<g id="web">
	<g>
		<path class="st0" d="M100,101.2H9.1c-5,0-9.1-4.1-9.1-9.1c0-5,12.5-9,17.5-9h72.8c5,0,18.7,4.1,18.7,9
			C109,97.2,104.9,101.2,100,101.2z M17.5,87.5c-2.6,0-13.2,2.1-13.2,4.7c0,2.6,2.1,4.7,4.7,4.7H100c2.6,0,4.7-2.1,4.7-4.7
			c0-2.6-11.8-4.7-14.4-4.7H17.5z"/>
		<path class="st0" d="M90.3,85.3H17.5c-3.8,0-15.3,3.1-15.3,6.9C2.2,96,5.2,99,9.1,99H100c3.8,0,6.9-3.1,6.9-6.9
			C106.8,88.4,94.1,85.3,90.3,85.3z M64.9,97.6h-22v-6.9h22V97.6z"/>
		<path class="st0" d="M91.7,81.7H16.2c-1.5,0-2.8-1.2-2.8-2.8V27.4c0-1.5,1.2-2.8,2.8-2.8h75.5c1.5,0,2.8,1.2,2.8,2.8v51.5
			C94.5,80.4,93.2,81.7,91.7,81.7z M19,76.1h70V30.2H19V76.1z"/>
		<polygon class="st0" points="45.4,36.2 81.2,36.2 81.2,41.3 81.2,57.3 45.4,57.3 		"/>
		<rect x="26.9" y="36.2" class="st0" width="16" height="2.5"/>
		<rect x="26.9" y="40.8" class="st0" width="16" height="2.5"/>
		<rect x="26.9" y="45.5" class="st0" width="16" height="2.5"/>
		<rect x="26.9" y="50.2" class="st0" width="16" height="2.5"/>
		<rect x="26.9" y="54.8" class="st0" width="16" height="2.5"/>
		<rect x="53.3" y="67" class="st0" width="27.9" height="2.5"/>
		<rect x="26.9" y="62.1" class="st0" width="54.2" height="2.5"/>
	</g>
</g>
<g id="Layer_4">
</g>
</svg>
